<svg width="150" height="65" viewBox="0 0 150 65" fill="none" xmlns="http://www.w3.org/2000/svg">
  alt="Smile Train logo"
  <path d="M12.9792 64.8652C13.1049 64.991 13.2935 64.991 13.3563 64.8652L26.2413 51.9803C26.367 51.8546 26.367 51.666 26.2413 51.6031L13.4192 38.6553C13.2935 38.5296 13.1049 38.5296 13.042 38.6553L12.9792 64.8652Z" fill="#6DA9DC"/>
  <path d="M13.2306 27.8444L9.71076 28.0329L5.1853 14.0166H13.2306V27.8444Z" fill="#4B79BC"/>
  <path d="M13.1678 27.8444L16.6876 28.0329L21.213 14.0166H13.1678V27.8444Z" fill="#6DA9DC"/>
  <path d="M13.1678 64.9277C13.105 64.9906 13.0421 64.9278 12.9793 64.8649L0.0942803 51.9799C-0.0314268 51.8542 -0.0314268 51.6656 0.0942803 51.6028L12.9793 38.7178C13.105 38.5921 13.105 38.5921 13.2307 38.7178L13.1678 64.9277Z" fill="#4B79BC"/>
  <path d="M15.3677 0C11.785 0 8.89379 2.82841 8.83093 6.34821H21.9673C21.8416 2.82841 18.9504 0 15.3677 0Z" fill="#BFBCBA"/>
  <path d="M23.5385 1.19385C20.6473 1.19385 18.3217 3.51943 18.196 6.34784H28.8182C28.7554 3.51943 26.4298 1.19385 23.5385 1.19385Z" fill="#BFBCBA"/>
  <path d="M31.081 3.14307C29.2582 3.14307 27.8126 4.5887 27.7498 6.3486H34.3494C34.3494 4.5887 32.8409 3.14307 31.081 3.14307Z" fill="#BFBCBA"/>
  <path d="M38.812 4.02295C37.4921 4.02295 36.4236 5.09146 36.3607 6.41138H41.2633C41.2004 5.02861 40.1319 4.02295 38.812 4.02295Z" fill="#BFBCBA"/>
  <path d="M21.213 14.0165C18.1331 14.0165 8.7051 14.0165 5.1853 14.0165C5.1853 10.811 7.19661 8.17114 9.71076 8.17114H16.7504C19.2016 8.17114 21.213 10.811 21.213 14.0165Z" fill="black"/>
  <path d="M13.1679 49.7795C20.2075 49.7166 25.9272 43.9341 25.9272 36.8316C25.9272 29.7292 20.2075 23.9466 13.1679 23.8838C13.1679 23.8838 13.1679 49.7795 13.1679 49.7795Z" fill="#F37654"/>
  <path d="M13.1678 49.7799C6.12824 49.7171 0.408569 43.9346 0.408569 36.8321C0.408569 29.7297 6.12824 23.9471 13.1678 23.8843V49.7799Z" fill="#EE3124"/>
  <path d="M12.9793 44.4999C11.0937 44.4999 9.14527 43.9971 7.44822 42.8657C6.50542 42.2372 5.62547 41.4829 4.99693 40.5401C4.74552 40.163 4.80837 39.723 5.12264 39.4087C5.49976 39.1573 5.93973 39.2202 6.254 39.5345C6.81968 40.2887 7.51107 40.9172 8.32817 41.4829C12.2251 44.0599 17.5048 42.9285 20.0818 39.0316C20.3332 38.6545 20.836 38.5917 21.1503 38.7802C21.5274 39.0316 21.5903 39.5345 21.4017 39.8487C19.4532 42.8657 16.2477 44.4999 12.9793 44.4999Z" fill="white"/>
  <path d="M62.0679 32.4955C60.308 32.4955 58.6738 33.1869 57.6053 35.0725C56.8511 33.124 55.154 32.4326 53.5198 32.4326C52.1371 32.4326 50.6286 32.9354 49.8743 34.3811L49.6858 32.6212H47.1716V45.6947H49.8743V38.5294C49.8743 36.581 51.0686 34.9468 53.017 34.9468C54.9655 34.9468 56.034 36.581 56.0968 38.4666V45.6319H58.8624V38.4666C58.8624 36.5181 60.1195 34.9468 62.0679 34.9468C64.0164 34.9468 64.9592 36.4552 64.9592 38.4037V45.6319H67.7247V38.4037C67.599 34.8211 65.7134 32.4955 62.0679 32.4955Z" fill="#EE3124"/>
  <path d="M73.3187 32.6836H70.616V45.82H73.3187V32.6836Z" fill="#EE3124"/>
  <path d="M70.3018 28.9129C70.3018 31.1756 73.6958 31.1756 73.6958 28.9129C73.6958 26.6501 70.3018 26.6501 70.3018 28.9129Z" fill="#EE3124"/>
  <path d="M79.0382 27.2783H76.3355V45.8201H79.0382V27.2783Z" fill="#EE3124"/>
  <path d="M109.082 27.2783H94.186V28.5354H100.911V45.8201H102.357V28.5354H109.082V27.2783Z" fill="#6DA9DC"/>
  <path d="M108.58 35.0091L108.517 32.6835H107.322V45.757H108.642V38.1517C108.642 35.7633 110.528 33.8148 112.979 33.752C113.734 33.752 114.488 33.9406 115.179 34.3805L115.745 33.312C114.865 32.8092 113.922 32.4949 112.916 32.5578C111.219 32.5578 109.397 33.2492 108.58 35.0091Z" fill="#6DA9DC"/>
  <path d="M127.938 35.5751C126.87 33.5638 124.733 32.5581 122.596 32.5581C118.95 32.5581 115.933 35.2608 115.933 39.2834C115.933 43.3061 118.95 46.0088 122.596 46.0716C124.733 46.0716 126.681 45.1288 127.938 43.0546V45.8202H129.258C129.258 41.4205 129.258 37.0836 129.258 32.7467H127.938V35.5751ZM122.596 44.7517C119.642 44.7517 117.253 42.5518 117.253 39.2834C117.253 36.015 119.642 33.8152 122.596 33.8152C129.887 33.7523 129.887 44.7517 122.596 44.7517Z" fill="#6DA9DC"/>
  <path d="M134.349 32.6211H133.03V45.7575H134.349V32.6211Z" fill="#6DA9DC"/>
  <path d="M132.652 28.4096C132.652 29.7924 134.727 29.7924 134.727 28.4096C134.727 27.0269 132.652 27.0269 132.652 28.4096Z" fill="#6DA9DC"/>
  <path d="M144.029 32.4326C142.206 32.4326 140.383 33.1869 139.378 35.0096V32.684H138.121V45.7576H139.441V38.4666C139.441 35.7639 141.326 33.7525 144.029 33.6897C146.857 33.6897 148.68 35.261 148.68 38.2151V45.7576H150V38.2151C149.937 34.5696 147.486 32.4326 144.029 32.4326Z" fill="#6DA9DC"/>
  <path d="M92.9917 39.9123C92.866 41.1693 91.6718 42.3007 90.5404 42.9292C88.4034 44.0606 86.3921 43.6835 85.1979 42.0493L95.003 36.8324C94.2488 34.8211 92.6146 33.2498 90.5404 32.5584C89.9119 32.3698 89.2205 32.2441 88.4662 32.2441C87.7749 32.2441 87.0835 32.3698 86.3921 32.5584C85.9521 32.6841 85.5121 32.8727 85.0722 33.1241C82.9351 34.3183 81.4895 36.581 81.4895 39.2209C81.4895 43.055 84.5693 46.1348 88.4034 46.1976H88.4662C91.0432 46.1976 93.306 44.8149 94.5002 42.6778C95.003 41.8607 95.3173 40.9179 95.3801 39.9123H92.9917ZM86.2664 35.2611C88.2148 34.2555 90.2261 34.5069 91.6089 36.0154L84.1293 39.9751C83.6265 38.2152 84.5065 36.2039 86.2664 35.2611Z" fill="#EE3124"/>
  <path d="M38.5606 34.7577C36.5493 34.4434 34.8523 33.9406 34.8523 32.1178C34.8523 30.3579 36.3608 29.2894 38.3721 29.2894C39.9434 29.2894 41.4519 30.1065 42.1433 31.3636L44.0289 29.8551C42.709 27.3409 40.5091 26.7124 38.3092 26.7124C35.5437 26.7124 32.3381 28.2209 32.401 32.055C32.401 36.0147 35.2923 36.9575 38.3721 37.4604C40.5091 37.7746 42.269 38.466 42.269 40.4773C42.269 42.8029 40.2577 43.5572 38.3721 43.5572C36.6122 43.5572 34.6637 42.7401 33.5952 40.5402L31.7725 42.0487C33.1552 45.1913 35.418 46.2599 38.3721 46.2599C41.5776 46.2599 44.7203 44.6885 44.7203 40.5402C44.7203 36.329 41.7033 35.2605 38.5606 34.7577Z" fill="#EE3124"/>
</svg>
